<svg width="150" height="150" xmlns="http://www.w3.org/2000/svg">
 <g class="layer">
  <title>Layer 1</title>
  <g stroke="null" id="svg_1">
   <!--  Smoke Stack  -->
   <path stroke="null" id="svg_5" fill="#ff6696" d="m99.74538,30.97314c0.41234,0.22515 0.8678,0.33754 1.32362,0.33754c0.45546,0 0.91091,-0.11239 1.32325,-0.33754c5.96625,-3.25378 10.27061,-6.94239 12.79331,-10.96337c2.89414,-4.61352 2.75706,-8.50258 2.13246,-10.95269c-1.20939,-4.7436 -5.2628,-8.05708 -9.85679,-8.05708c-2.34729,0 -4.56119,0.89175 -6.39186,2.52196c-1.82956,-1.63021 -4.04236,-2.52196 -6.38965,-2.52196c-4.59252,0 -8.64482,3.31274 -9.85458,8.05634c-0.62459,2.45047 -0.76204,6.33917 2.13062,10.95269c2.52159,4.02172 6.82484,7.71033 12.78962,10.96411zm-9.56421,-20.5508c0.57522,-2.25701 2.46742,-3.89496 4.49855,-3.89496c1.55025,0 2.94204,0.94481 4.02541,2.73347c0.50041,0.8269 1.39695,1.3321 2.36351,1.3321l0.00037,0c0.96619,0 1.86273,-0.5052 2.36351,-1.33136c1.08373,-1.78866 2.477,-2.73421 4.02872,-2.73421c2.0326,0 3.92518,1.63795 4.50076,3.89496c0.93523,3.66907 -1.49055,9.44408 -10.89262,14.95046c-9.39949,-5.50564 -11.8238,-11.28138 -10.8882,-14.95046z"/>
   <!--  House Frame  -->
   <path stroke="null" id="svg_4" fill="#ff80c5" d="m131.25219,79.64983l-18.88006,-14.50937c0.03759,-0.18056 0.05896,-0.36702 0.05896,-0.55863l0,-25.09209c0,-1.52666 -1.23703,-2.76369 -2.76369,-2.76369l-17.1931,0c-1.52666,0 -2.76369,1.23703 -2.76369,2.76369l0,8.23506l-21.04716,-16.17385c-0.99309,-0.76278 -2.37493,-0.76278 -3.36839,0l-62.58947,48.09889c-0.93855,0.72114 -1.31331,1.95964 -0.93265,3.08022c0.38102,1.12058 1.43343,1.87489 2.61703,1.87489l17.13783,0l0,50.40713c0,6.55879 5.33613,11.89455 11.89529,11.89455l67.11308,0c6.55916,0 11.89529,-5.33576 11.89529,-11.89455l0,-50.40676l17.13709,0c1.1836,0 2.23564,-0.75357 2.61703,-1.87489c0.38028,-1.12058 0.00516,-2.35909 -0.93339,-3.08059zm-36.0142,-37.39604l11.66572,0l0,18.68439l-11.66572,-8.96541l0,-9.71898zm11.66572,92.75865c0,3.51062 -2.85655,6.36717 -6.36791,6.36717l-67.11308,0c-3.51136,0 -6.36791,-2.85655 -6.36791,-6.36717l0,-51.79782l39.92464,-30.25577l39.92464,30.25577l0,51.79782l-0.00037,0zm3.69266,-55.93451l-41.94766,-31.78907c-0.98756,-0.74767 -2.35135,-0.74767 -3.33891,0l-41.94766,31.78907l-10.84067,0l54.45796,-41.85001l54.45722,41.84964l-10.8403,0l0,0.00037z"/>
   <!--  Chimney Fill  -->
   <polygon stroke="null" points="106.90371704101562,42.253787994384766 95.23798370361328,42.253787994384766 95.23798370361328,51.97276306152344 106.90371704101562,60.938175201416016 " id="svg_3" fill="#ff6696"/>
   <!--  PawPrint  -->
   <path stroke="null" id="svg_10" fill="#ff6696" d="m48.10773,108.40088c0,-6.12529 -3.62312,-10.92364 -8.24771,-10.92364c-4.62477,0 -8.24844,4.79835 -8.24844,10.92364c0,6.1227 3.62368,10.92142 8.24844,10.92142c4.62477,0 8.24771,-4.79872 8.24771,-10.92142z"/>
   <path stroke="null" id="svg_9" fill="#ff6696" d="m95.63307,97.47724c-4.62662,0 -8.24752,4.79816 -8.24752,10.92364c0,6.1227 3.62312,10.92142 8.24752,10.92142c4.62403,0 8.24937,-4.79872 8.24937,-10.92142c0,-6.12529 -3.62312,-10.92364 -8.24937,-10.92364z"/>
   <path stroke="null" id="svg_8" fill="#ff6696" d="m78.44205,104.69106c5.76998,0 10.46644,-6.30109 10.46644,-14.04825c0,-7.7466 -4.69646,-14.04955 -10.46644,-14.04955c-5.77332,0 -10.46867,6.30276 -10.46867,14.04955c0,7.74716 4.69535,14.04825 10.46867,14.04825z"/>
   <path stroke="null" id="svg_6" fill="#ff6696" d="m56.18315,104.69106c5.77276,0 10.46811,-6.30109 10.46811,-14.04825c0,-7.7466 -4.69553,-14.04955 -10.46811,-14.04955c-5.77109,0 -10.467,6.30276 -10.467,14.04955c0,7.74716 4.6959,14.04825 10.467,14.04825z"/>
   <path stroke="null" id="svg_7" fill="#ff6696" d="m87.23217,118.35677c-0.21471,-0.29251 -0.42052,-0.56835 -0.53055,-0.80547c-2.34064,-5.01027 -8.75677,-10.91697 -19.15152,-11.06387l-0.39995,-0.00223c-10.23506,0 -16.60341,5.594 -19.15134,10.83139c-0.08799,0.17914 -0.28158,0.41162 -0.48665,0.65745c-0.24268,0.28806 -0.48276,0.5828 -0.68802,0.90309c-2.15242,3.34839 -3.24984,7.11842 -3.08793,10.61464c0.16969,3.71185 1.72375,6.69327 4.36838,8.39405c1.06852,0.68635 2.22152,1.03221 3.4312,1.03221c2.49439,0 4.77815,-1.40493 7.42463,-3.03217c1.68263,-1.03703 3.42064,-2.10704 5.35113,-2.90787c0.21637,-0.07132 1.10298,-0.18025 2.55293,-0.18025c1.72412,0 2.96233,0.15339 3.22687,0.24472c1.88455,0.83196 3.53957,1.92327 5.14032,2.9766c2.45401,1.61742 4.77112,3.14369 7.28514,3.14369c1.0789,0 2.12463,-0.28473 3.11128,-0.84529c5.44301,-3.09238 6.47986,-11.57665 2.31266,-18.91181c-0.20915,-0.36809 -0.45831,-0.71173 -0.70858,-1.04888z"/>
  </g>
 </g>

</svg>