<?xml version="1.0" encoding="utf-8"?>
<!-- Generator: Adobe Illustrator 26.0.1, SVG Export Plug-In . SVG Version: 6.00 Build 0)  -->
<svg version="1.1" id="Layer_2" xmlns="http://www.w3.org/2000/svg" xmlns:xlink="http://www.w3.org/1999/xlink" x="0px" y="0px"
	 viewBox="0 0 26 24.7" style="enable-background:new 0 0 26 24.7;" xml:space="preserve">
<style type="text/css">
	.st0{fill:#fd67cb;}
	.st1{clip-path:url(#SVGID_00000065048383216681260460000010890182672072807326_);}
	.st2{clip-path:url(#SVGID_00000024694683637652493880000000861932276872888249_);}
</style>
<g id="Farming" transform="translate(-2.574 -8.683)">
	<path id="Path_16" class="st0" d="M23.4,21.6L21,20.8v-1c0.5,0,0.8-0.4,0.8-0.9v-2.7c0-0.4-0.3-0.8-0.8-0.9v-0.9l1-0.6
		c0.1-0.1,0.2-0.3,0.1-0.4c0,0,0,0,0,0c-0.1-0.1-0.2-0.2-0.3-0.1c0,0,0,0,0,0l-1.2,0.7c-0.1,0.1-0.1,0.2-0.1,0.3v1
		c-0.5,0-0.8,0.4-0.8,0.9v2.7c0,0.5,0.3,0.8,0.8,0.9v0.8c0,0-2.1-0.6-2.4-0.7l-2.9-6.2c-0.1-0.1-0.1-0.2-0.3-0.2H9.1
		c-0.2,0-0.3,0.1-0.3,0.3v8.4c1.9-0.6,3.9,0.5,4.4,2.4c0.1,0.3,0.1,0.7,0.1,1v0.3h5.2c0.1-1.7,1.6-3,3.3-2.9c1,0.1,1.9,0.6,2.5,1.5
		v-1.7C24.3,22.3,24,21.8,23.4,21.6z M10.7,18.9c-0.1,0-0.3-0.1-0.3-0.2c0,0,0,0,0,0v-3.2c0-0.1,0.1-0.3,0.2-0.3c0,0,0,0,0,0h3.2
		c0.1,0,0.2,0.1,0.3,0.2l1.5,3.1c0,0.1,0,0.2,0,0.3c0,0.1-0.1,0.1-0.2,0.1L10.7,18.9z M17.2,24.6h-2.6c-0.2,0-0.3-0.1-0.3-0.3
		s0.1-0.3,0.3-0.3c0,0,0,0,0,0h2.7c0.2,0,0.3,0.1,0.3,0.3C17.5,24.5,17.4,24.6,17.2,24.6C17.2,24.6,17.2,24.6,17.2,24.6L17.2,24.6z"
		/>
	<path id="Path_17" class="st0" d="M9.1,22.8c-1.6,0.4-2.6,2-2.2,3.6c0.4,1.6,2,2.6,3.6,2.2c1.4-0.3,2.3-1.5,2.3-2.9
		c0-1.7-1.4-3-3-3C9.5,22.7,9.3,22.7,9.1,22.8z"/>
	<path id="Path_18" class="st0" d="M21.7,23.6c-1.4,0-2.5,1.1-2.5,2.5c0,1.4,1.1,2.5,2.5,2.5c1.4,0,2.5-1.1,2.5-2.5l0,0
		C24.2,24.8,23.1,23.6,21.7,23.6z"/>
</g>
</svg>
